# xmcd
#
# Track frame offsets: 
#        150
#        20105
#        35590
#
# Disc length: 760 seconds
#
# Revision: 2
# Processed by: cddbd v1.4PL0 Copyright (c) Steve Scherf et al.
# Submitted via: ExactAudioCopy v0.90b4
#
DISCID=2102f603
DTITLE=Alanis Morissette - Joining You
DYEAR=1999
DGENRE=Rock
TTITLE0=Joining You (Album Version)
TTITLE1=Your House (BBC/Radio One Live)
TTITLE2=London (Bridge School Benefit Live)
EXTD=0\n\n\n
EXTT0=
EXTT1=
EXTT2=
PLAYORDER=
